<svg xmlns="http://www.w3.org/2000/svg" xmlns:xlink="http://www.w3.org/1999/xlink" fill="none" viewBox="0 0 248 249" aria-hidden="true" style="touch-action: none;">
  <path fill="url(#paint0_linear_1629_34054)" fill-rule="evenodd" d="M9.222 48.227A127.478 127.478 0 0 1 .015 8.005C-.262 3.594 3.353.009 7.78.009h232.44c4.427 0 8.042 3.585 7.765 7.995a127.47 127.47 0 0 1-9.207 40.224 126.123 126.123 0 0 1-26.93 40.877c-11.537 11.699-25.231 20.98-40.305 27.312a123.042 123.042 0 0 1-25.497 7.592 122.981 122.981 0 0 1 25.497 7.592c15.074 6.332 28.768 15.613 40.305 27.312a126.122 126.122 0 0 1 26.93 40.877 127.472 127.472 0 0 1 9.207 40.224c.277 4.41-3.338 7.995-7.765 7.995H7.78c-4.427 0-8.042-3.585-7.765-7.995a127.48 127.48 0 0 1 9.207-40.224 126.132 126.132 0 0 1 26.93-40.877c11.537-11.699 25.231-20.98 40.305-27.312a122.987 122.987 0 0 1 25.497-7.592 123.048 123.048 0 0 1-25.497-7.592c-15.074-6.332-28.768-15.613-40.305-27.313a126.134 126.134 0 0 1-26.93-40.877Z" clip-rule="evenodd" style="touch-action: none;"></path>
  <path fill="url(#pattern0)" fill-opacity=".6" fill-rule="evenodd" d="M9.222 48.227A127.478 127.478 0 0 1 .015 8.005C-.262 3.594 3.353.009 7.78.009h232.44c4.427 0 8.042 3.585 7.765 7.995a127.47 127.47 0 0 1-9.207 40.224 126.123 126.123 0 0 1-26.93 40.877c-11.537 11.699-25.231 20.98-40.305 27.312a123.042 123.042 0 0 1-25.497 7.592 122.981 122.981 0 0 1 25.497 7.592c15.074 6.332 28.768 15.613 40.305 27.312a126.122 126.122 0 0 1 26.93 40.877 127.472 127.472 0 0 1 9.207 40.224c.277 4.41-3.338 7.995-7.765 7.995H7.78c-4.427 0-8.042-3.585-7.765-7.995a127.48 127.48 0 0 1 9.207-40.224 126.132 126.132 0 0 1 26.93-40.877c11.537-11.699 25.231-20.98 40.305-27.312a122.987 122.987 0 0 1 25.497-7.592 123.048 123.048 0 0 1-25.497-7.592c-15.074-6.332-28.768-15.613-40.305-27.313a126.134 126.134 0 0 1-26.93-40.877Z" clip-rule="evenodd" style="mix-blend-mode: multiply; touch-action: none;"></path>
  <path fill="url(#paint1_radial_1629_34054)" fill-rule="evenodd" d="M9.222 48.227A127.478 127.478 0 0 1 .015 8.005C-.262 3.594 3.353.009 7.78.009h232.44c4.427 0 8.042 3.585 7.765 7.995a127.47 127.47 0 0 1-9.207 40.224 126.123 126.123 0 0 1-26.93 40.877c-11.537 11.699-25.231 20.98-40.305 27.312a123.042 123.042 0 0 1-25.497 7.592 122.981 122.981 0 0 1 25.497 7.592c15.074 6.332 28.768 15.613 40.305 27.312a126.122 126.122 0 0 1 26.93 40.877 127.472 127.472 0 0 1 9.207 40.224c.277 4.41-3.338 7.995-7.765 7.995H7.78c-4.427 0-8.042-3.585-7.765-7.995a127.48 127.48 0 0 1 9.207-40.224 126.132 126.132 0 0 1 26.93-40.877c11.537-11.699 25.231-20.98 40.305-27.312a122.987 122.987 0 0 1 25.497-7.592 123.048 123.048 0 0 1-25.497-7.592c-15.074-6.332-28.768-15.613-40.305-27.313a126.134 126.134 0 0 1-26.93-40.877Z" clip-rule="evenodd" style="touch-action: none;"></path>
  <path fill="url(#pattern1)" fill-opacity=".6" fill-rule="evenodd" d="M9.222 48.227A127.478 127.478 0 0 1 .015 8.005C-.262 3.594 3.353.009 7.78.009h232.44c4.427 0 8.042 3.585 7.765 7.995a127.47 127.47 0 0 1-9.207 40.224 126.123 126.123 0 0 1-26.93 40.877c-11.537 11.699-25.231 20.98-40.305 27.312a123.042 123.042 0 0 1-25.497 7.592 122.981 122.981 0 0 1 25.497 7.592c15.074 6.332 28.768 15.613 40.305 27.312a126.122 126.122 0 0 1 26.93 40.877 127.472 127.472 0 0 1 9.207 40.224c.277 4.41-3.338 7.995-7.765 7.995H7.78c-4.427 0-8.042-3.585-7.765-7.995a127.48 127.48 0 0 1 9.207-40.224 126.132 126.132 0 0 1 26.93-40.877c11.537-11.699 25.231-20.98 40.305-27.312a122.987 122.987 0 0 1 25.497-7.592 123.048 123.048 0 0 1-25.497-7.592c-15.074-6.332-28.768-15.613-40.305-27.313a126.134 126.134 0 0 1-26.93-40.877Z" clip-rule="evenodd" style="mix-blend-mode: multiply; touch-action: none;"></path>
  <path fill="url(#paint2_radial_1629_34054)" fill-rule="evenodd" d="M9.222 48.227A127.478 127.478 0 0 1 .015 8.005C-.262 3.594 3.353.009 7.78.009h232.44c4.427 0 8.042 3.585 7.765 7.995a127.47 127.47 0 0 1-9.207 40.224 126.123 126.123 0 0 1-26.93 40.877c-11.537 11.699-25.231 20.98-40.305 27.312a123.042 123.042 0 0 1-25.497 7.592 122.981 122.981 0 0 1 25.497 7.592c15.074 6.332 28.768 15.613 40.305 27.312a126.122 126.122 0 0 1 26.93 40.877 127.472 127.472 0 0 1 9.207 40.224c.277 4.41-3.338 7.995-7.765 7.995H7.78c-4.427 0-8.042-3.585-7.765-7.995a127.48 127.48 0 0 1 9.207-40.224 126.132 126.132 0 0 1 26.93-40.877c11.537-11.699 25.231-20.98 40.305-27.312a122.987 122.987 0 0 1 25.497-7.592 123.048 123.048 0 0 1-25.497-7.592c-15.074-6.332-28.768-15.613-40.305-27.313a126.134 126.134 0 0 1-26.93-40.877Z" clip-rule="evenodd" style="touch-action: none;"></path>
  <path fill="url(#pattern2)" fill-rule="evenodd" d="M9.222 48.227A127.478 127.478 0 0 1 .015 8.005C-.262 3.594 3.353.009 7.78.009h232.44c4.427 0 8.042 3.585 7.765 7.995a127.47 127.47 0 0 1-9.207 40.224 126.123 126.123 0 0 1-26.93 40.877c-11.537 11.699-25.231 20.98-40.305 27.312a123.042 123.042 0 0 1-25.497 7.592 122.981 122.981 0 0 1 25.497 7.592c15.074 6.332 28.768 15.613 40.305 27.312a126.122 126.122 0 0 1 26.93 40.877 127.472 127.472 0 0 1 9.207 40.224c.277 4.41-3.338 7.995-7.765 7.995H7.78c-4.427 0-8.042-3.585-7.765-7.995a127.48 127.48 0 0 1 9.207-40.224 126.132 126.132 0 0 1 26.93-40.877c11.537-11.699 25.231-20.98 40.305-27.312a122.987 122.987 0 0 1 25.497-7.592 123.048 123.048 0 0 1-25.497-7.592c-15.074-6.332-28.768-15.613-40.305-27.313a126.134 126.134 0 0 1-26.93-40.877Z" clip-rule="evenodd" style="mix-blend-mode: multiply; touch-action: none;"></path>
  <defs style="touch-action: none;">
    <pattern id="pattern0" width=".806" height=".806" patternContentUnits="objectBoundingBox" style="touch-action: none;">
      <use xlink:href="#svg-noise" transform="scale(.00161)" style="touch-action: none;"></use>
    </pattern>
    <pattern id="pattern1" width="1.145" height="1.145" patternContentUnits="objectBoundingBox" style="touch-action: none;">
      <use xlink:href="#svg-noise" transform="scale(.00229)" style="touch-action: none;"></use>
    </pattern>
    <pattern id="pattern2" width=".403" height=".403" patternContentUnits="objectBoundingBox" style="touch-action: none;">
      <use xlink:href="#svg-noise" transform="scale(.0008)" style="touch-action: none;"></use>
    </pattern>
    <radialGradient id="paint1_radial_1629_34054" cx="0" cy="0" r="1" gradientTransform="matrix(76.0007 -837.0006 358.90647 32.58915 177 394.509)" gradientUnits="userSpaceOnUse" style="touch-action: none;">
      <stop stop-color="#FF8709" style="touch-action: none;"></stop>
      <stop offset=".455" stop-color="#FFC78A" style="touch-action: none;"></stop>
      <stop offset=".667" stop-color="#FFD9B0" style="touch-action: none;"></stop>
    </radialGradient>
    <radialGradient id="paint2_radial_1629_34054" cx="0" cy="0" r="1" gradientTransform="rotate(-48.289 195.776 87.758) scale(235.103 157.04)" gradientUnits="userSpaceOnUse" style="touch-action: none;">
      <stop stop-color="#FFD9B0" style="touch-action: none;"></stop>
      <stop offset=".807" stop-color="#FD9F3B" style="touch-action: none;"></stop>
      <stop offset="1" stop-color="#FF8709" style="touch-action: none;"></stop>
    </radialGradient>
    <linearGradient id="paint0_linear_1629_34054" x1="11.365" x2="202.145" y1="62.241" y2="148.968" gradientUnits="userSpaceOnUse" style="touch-action: none;">
      <stop offset=".152" stop-color="#0AE448" style="touch-action: none;"></stop>
      <stop offset=".855" stop-color="#ABFF84" style="touch-action: none;"></stop>
    </linearGradient>
  </defs>
</svg>